<svg width="35" height="26" viewBox="0 0 35 26" fill="none" xmlns="http://www.w3.org/2000/svg">
<path fill-rule="evenodd" clip-rule="evenodd" d="M22.2641 0C22.2641 3.2009 23.5357 6.2707 25.799 8.53408C27.7959 10.531 30.4205 11.7558 33.209 12.0166H34.3331V12.069V12.8225V12.8749V12.9273V13.6808V13.7332L34.3295 13.7332L34.3268 13.7332H33.209C30.4205 13.994 27.7959 15.2189 25.799 17.2158C23.5357 19.4791 22.2641 22.5489 22.2641 25.7498H21.4582H21.4058H20.5999C20.5999 25.4627 20.6089 25.1764 20.6267 24.8915C20.835 21.5625 22.2498 18.4114 24.6222 16.039C25.5384 15.1228 26.5707 14.3495 27.6845 13.7332H0V12.0166H27.6845C26.5707 11.4004 25.5384 10.627 24.6222 9.71087C22.2498 7.33844 20.835 4.18738 20.6267 0.858328C20.6089 0.573397 20.5999 0.287162 20.5999 0H21.4058H21.4582H22.2641Z" fill="#262626"/>
</svg>
