<?xml version="1.0" encoding="utf-8"?><svg viewBox="0 0 20 20" xmlns="http://www.w3.org/2000/svg" xmlns:xlink="http://www.w3.org/1999/xlink"><style>:root>svg{display:none}:root>svg:target{display:block}</style><svg fill="none" viewBox="0 0 20 20" id="icon-done" xmlns="http://www.w3.org/2000/svg"><path fill-rule="evenodd" clip-rule="evenodd" d="M17.848 3l1.448 1.448L8.2 15.544l.007.008L6.759 17l-.008-.007-.007.007-1.448-1.448.006-.008L0 10.241l1.448-1.448 5.303 5.303L17.848 3z" fill="#191919"/></svg><svg fill="none" viewBox="0 0 20 20" id="icon-lock" xmlns="http://www.w3.org/2000/svg"><path fill-rule="evenodd" clip-rule="evenodd" d="M14.107 6.615a3.818 3.818 0 00-7.63.203v1.018H5V17h10.691V7.836H14.113V6.818l-.006-.203zm-1.521 1.221V6.818a2.29 2.29 0 00-4.577-.157l-.005.157v1.018h4.582zM6.526 9.364h7.637v6.109H6.527v-6.11z" fill="#A1A1A1"/></svg></svg>