<svg width="71" height="71" viewBox="0 0 71 71" fill="none" xmlns="http://www.w3.org/2000/svg">
<path d="M53.25 66.2274L17.75 4.77295" stroke="#262626" stroke-width="2" stroke-miterlimit="10"/>
<path d="M62.6776 58.3382L8.32324 12.7009" stroke="#262626" stroke-width="2" stroke-miterlimit="10"/>
<path d="M68.87 47.6489L2.12988 23.3511" stroke="#262626" stroke-width="2" stroke-miterlimit="10"/>
<path d="M71 35.5H0" stroke="#262626" stroke-width="2" stroke-miterlimit="10"/>
<path d="M68.87 23.3511L2.12988 47.6489" stroke="#262626" stroke-width="2" stroke-miterlimit="10"/>
<path d="M62.6776 12.7009L8.32324 58.3382" stroke="#262626" stroke-width="2" stroke-miterlimit="10"/>
<path d="M53.25 4.77295L17.75 66.2274" stroke="#262626" stroke-width="2" stroke-miterlimit="10"/>
<path d="M41.6534 0.552246L29.3467 70.4478" stroke="#262626" stroke-width="2" stroke-miterlimit="10"/>
<path d="M29.3467 0.552246L41.6534 70.4478" stroke="#262626" stroke-width="2" stroke-miterlimit="10"/>
<path d="M47.6494 2.12988L23.3516 68.8699" stroke="#262626" stroke-width="2" stroke-miterlimit="10"/>
<path d="M58.3377 8.32275L12.6611 62.6772" stroke="#262626" stroke-width="2" stroke-miterlimit="10"/>
<path d="M66.2268 17.75L4.77246 53.25" stroke="#262626" stroke-width="2" stroke-miterlimit="10"/>
<path d="M70.4474 29.3467L0.551758 41.6533" stroke="#262626" stroke-width="2" stroke-miterlimit="10"/>
<path d="M70.4474 41.6533L0.551758 29.3467" stroke="#262626" stroke-width="2" stroke-miterlimit="10"/>
<path d="M66.2268 53.25L4.77246 17.75" stroke="#262626" stroke-width="2" stroke-miterlimit="10"/>
<path d="M58.3377 62.6772L12.6611 8.32275" stroke="#262626" stroke-width="2" stroke-miterlimit="10"/>
<path d="M47.6494 68.8699L23.3516 2.12988" stroke="#262626" stroke-width="2" stroke-miterlimit="10"/>
<path d="M35.5 71V0" stroke="#262626" stroke-width="2" stroke-miterlimit="10"/>
</svg>
