<svg width="95" height="96" viewBox="0 0 95 96" fill="none" xmlns="http://www.w3.org/2000/svg">
<path d="M47.5 0L50.2879 32.4266L64.0123 2.93333L55.4881 34.2932L78.5411 11.2534L59.7234 37.8133L89.2634 24L62.4576 42.6133L95 39.68L63.4228 48L95 56.3734L62.4576 53.4401L89.2634 72L59.7234 58.1867L78.5411 84.8L55.4881 61.7599L64.0123 93.1201L50.2879 63.6266L47.5 96L44.7121 63.6266L30.9877 93.1201L39.5656 61.7599L16.4589 84.8L35.2766 58.1867L5.73655 72L32.5424 53.4401L0 56.3734L31.5772 48L0 39.68L32.5424 42.6133L5.73655 24L35.2766 37.8133L16.4589 11.2534L39.5656 34.2932L30.9877 2.93333L44.7121 32.4266L47.5 0Z" fill="#262626"/>
</svg>
