<svg width="190" height="190" viewBox="0 0 190 190" fill="none" xmlns="http://www.w3.org/2000/svg">
<path fill-rule="evenodd" clip-rule="evenodd" d="M99.6274 82.3848C99.6274 85.5857 100.899 88.6555 103.162 90.9188C105.159 92.9157 107.784 94.1406 110.572 94.4014H111.696V94.4538V95.2073V95.2597V95.3121V96.0656V96.118L111.693 96.118L111.69 96.118H110.572C107.784 96.3788 105.159 97.6036 103.162 99.6005C100.899 101.864 99.6274 104.934 99.6274 108.135H98.8215H98.7691H97.9631C97.9631 107.847 97.9721 107.561 97.99 107.276C98.1983 103.947 99.6131 100.796 101.986 98.4237C102.902 97.5076 103.934 96.7342 105.048 96.118H77.3633V94.4014H105.048C103.934 93.7851 102.902 93.0118 101.986 92.0956C99.6131 89.7232 98.1983 86.5721 97.99 83.2431C97.9721 82.9582 97.9631 82.6719 97.9631 82.3848H98.7691H98.8215H99.6274Z" fill="#262626"/>
<path d="M165.341 95.2593C165.341 134.368 133.638 166.071 94.5293 166.071C55.4209 166.071 23.7172 134.368 23.7172 95.2593C23.7172 56.1509 55.4209 24.4472 94.5293 24.4472C133.638 24.4472 165.341 56.1509 165.341 95.2593Z" stroke="#262626" stroke-width="0.858328"/>
<path d="M174.852 99.7344C174.803 100.479 174.96 101.442 175.12 101.907L175.805 101.747C175.735 101.478 175.498 100.613 175.551 99.8096C175.715 97.3131 177.204 96.0767 179.686 96.2397C182.124 96.3998 183.494 97.8534 183.344 100.145C183.191 102.467 181.484 103.454 179.849 103.347C178.185 103.238 177.452 103.013 177.501 102.269C177.53 101.831 177.91 101.621 178.319 101.648L181.618 101.865L181.669 101.091L181.26 101.064L181.263 101.02C181.591 100.939 181.906 100.388 181.881 99.6535C181.836 98.5509 180.985 97.6593 179.671 97.573C178.284 97.4819 177.175 98.0689 177.048 99.3361C176.964 100.166 177.344 100.631 177.756 100.834L177.753 100.878C177.12 100.924 176.849 101.698 176.816 102.209C176.714 103.757 178.369 104.012 179.785 104.105C181.785 104.236 183.848 102.964 184.027 100.234C184.212 97.4167 182.614 95.6256 179.767 95.4386C176.818 95.2449 175.048 96.7561 174.852 99.7344ZM177.785 99.5018C177.847 98.5529 178.731 98.2736 179.665 98.335C180.512 98.3906 181.21 98.9203 181.156 99.7525C181.098 100.628 180.717 101.073 179.491 100.992C178.279 100.912 177.721 100.48 177.785 99.5018Z" fill="#262626"/>
<path d="M178.617 114.306C180.943 114.759 182.659 113.677 183.026 111.796C183.392 109.915 182.207 108.268 179.881 107.815C177.554 107.362 175.838 108.444 175.472 110.325C175.106 112.207 176.29 113.853 178.617 114.306ZM178.785 113.445C176.875 113.073 176.045 111.823 176.305 110.488C176.565 109.152 177.803 108.305 179.713 108.677C181.623 109.049 182.453 110.298 182.193 111.634C181.933 112.969 180.695 113.817 178.785 113.445Z" fill="#262626"/>
<path d="M174.312 116.205L173.052 120.409L173.823 120.64L174.822 117.305L181.227 119.224L181.488 118.355L174.312 116.205Z" fill="#262626"/>
<path d="M174.583 130.87C176.109 131.201 177.417 130.413 177.994 129.02C178.727 127.25 177.894 125.4 175.704 124.493C173.514 123.586 171.617 124.305 170.884 126.075C170.307 127.468 170.675 128.95 171.988 129.795L172.335 128.957C171.459 128.357 171.287 127.319 171.668 126.4C172.188 125.143 173.57 124.559 175.368 125.304C177.166 126.049 177.73 127.438 177.21 128.696C176.829 129.615 175.974 130.227 174.93 130.032L174.583 130.87Z" fill="#262626"/>
<path d="M168.359 132.055L169.859 133.734L168.406 136.391L166.183 136.035L165.727 136.869L173.619 138.05L174.068 137.228L168.816 131.221L168.359 132.055ZM170.428 134.37L172.818 137.045L172.79 137.096L169.249 136.527L170.428 134.37Z" fill="#262626"/>
<path d="M164.496 138.963L162.968 141.197C161.969 142.659 162.269 143.75 163.199 144.386C164.177 145.055 165.171 144.741 165.595 144.199L165.656 144.24C165.437 144.87 165.466 145.581 166.263 146.126C167.169 146.745 168.318 146.645 169.202 145.352L170.68 143.19L164.496 138.963ZM164.648 140.166L166.798 141.636L165.758 143.157C165.204 143.967 164.314 144.102 163.686 143.673C163.143 143.302 162.964 142.63 163.632 141.652L164.648 140.166ZM167.45 142.082L169.503 143.485L168.537 144.898C167.976 145.72 167.293 145.785 166.75 145.413C166.098 144.967 166.038 144.147 166.501 143.47L167.45 142.082Z" fill="#262626"/>
<path d="M158.611 152.918C160.421 154.448 162.447 154.341 163.684 152.877C164.922 151.413 164.691 149.398 162.88 147.868C161.07 146.338 159.045 146.445 157.807 147.909C156.57 149.372 156.801 151.388 158.611 152.918ZM159.178 152.248C157.692 150.991 157.577 149.496 158.455 148.457C159.334 147.418 160.828 147.282 162.314 148.538C163.8 149.794 163.915 151.29 163.036 152.329C162.158 153.368 160.664 153.504 159.178 152.248Z" fill="#262626"/>
<path d="M158.434 158.499L159.073 157.855L153.757 152.578L153.118 153.221L158.434 158.499Z" fill="#262626"/>
<path d="M150.885 155.484L150.199 156.077L151.787 157.915L151.767 159.324L147.52 158.392L146.69 159.11L151.758 160.164L151.588 164.778L152.485 164.003L152.601 158.991L152.667 158.933L155.097 161.745L155.783 161.152L150.885 155.484Z" fill="#262626"/>
<path d="M141.547 167.516C142.899 169.463 144.883 169.884 146.457 168.791C148.032 167.697 148.33 165.691 146.978 163.744C145.627 161.797 143.642 161.376 142.068 162.47C140.494 163.563 140.195 165.569 141.547 167.516ZM142.268 167.015C141.158 165.417 141.434 163.943 142.552 163.167C143.669 162.39 145.148 162.647 146.257 164.245C147.367 165.843 147.091 167.318 145.973 168.094C144.856 168.87 143.378 168.614 142.268 167.015Z" fill="#262626"/>
<path d="M130.329 175.23C131.246 176.494 132.747 176.778 134.105 176.125C135.832 175.293 136.443 173.359 135.415 171.224C134.388 169.088 132.494 168.359 130.767 169.19C129.409 169.844 128.695 171.194 129.111 172.699L129.929 172.306C129.676 171.274 130.239 170.386 131.135 169.955C132.361 169.365 133.781 169.851 134.624 171.604C135.468 173.358 134.963 174.77 133.737 175.36C132.84 175.791 131.795 175.678 131.147 174.837L130.329 175.23Z" fill="#262626"/>
<path d="M125.916 171.617L125.654 171.709C124.093 172.255 124.223 173.635 124.914 175.889L125.789 178.745L123.151 179.667L120.944 173.356L120.088 173.655L122.561 180.726L126.87 179.219L125.801 175.765C125.148 173.653 125.1 172.786 125.984 172.477L126.191 172.404L125.916 171.617Z" fill="#262626"/>
<path d="M116.676 174.712L112.225 175.792L112.415 176.574L115.984 175.708L116.584 178.182L113.3 178.979L113.489 179.761L116.774 178.964L117.371 181.424L113.859 182.276L114.049 183.058L118.442 181.992L116.676 174.712Z" fill="#262626"/>
<path d="M109.883 174.526L109.028 174.642L109.271 176.44L104.038 177.15L103.796 175.367L102.94 175.483L103.291 178.063L104.146 177.947L105.045 184.573L109.452 183.975L109.187 180.822C108.999 178.677 109.325 177.703 109.757 177.186L110.235 177.121L109.883 174.526ZM108.684 177.332C108.331 178.103 108.198 179.302 108.331 180.938L108.532 183.288L105.792 183.66L105.001 177.831L108.684 177.332Z" fill="#262626"/>
<path d="M100.07 177.441L99.5874 177.456C98.4468 177.491 98.1294 178.115 97.844 178.827L95.4494 185.18L96.4145 185.15L98.1573 180.442L100.363 185.028L101.343 184.998L98.5773 179.346L98.6857 179.064C98.8352 178.694 99.0872 178.32 99.6282 178.303L100.096 178.289L100.07 177.441Z" fill="#262626"/>
<path d="M90.3814 185.156L91.285 185.236L91.9485 177.775L91.045 177.695L90.7547 180.959L89.3666 180.835C89.381 178.733 88.1723 177.336 86.3907 177.178C84.4816 177.008 82.9663 178.357 82.7563 180.718C82.5464 183.078 83.7999 184.673 85.709 184.843C87.527 185.005 88.9863 183.791 89.3026 181.638L90.6834 181.76L90.3814 185.156ZM83.6307 180.795C83.8031 178.857 84.9602 177.903 86.3155 178.023C87.6708 178.144 88.6413 179.287 88.469 181.226C88.2966 183.164 87.1394 184.119 85.7842 183.998C84.4289 183.877 83.4583 182.734 83.6307 180.795Z" fill="#262626"/>
<path d="M71.791 175.424L72.5032 175.591L70.9761 182.1L71.8592 182.307L73.3797 175.827L75.9435 176.428L74.4231 182.909L75.3062 183.116L76.8267 176.635L79.3906 177.237L77.8701 183.718L78.7532 183.925L80.4642 176.632L72.9434 174.868L73.3477 173.144L72.4789 172.94L71.791 175.424Z" fill="#262626"/>
<path d="M66.6279 180.827L69.2332 173.803L68.4101 173.498L62.5375 177.593L62.4689 177.567L64.5144 172.053L63.664 171.737L61.0587 178.761L61.8818 179.066L67.7732 174.963L67.8418 174.988L65.7912 180.516L66.6279 180.827Z" fill="#262626"/>
<path d="M57.3963 177.246L60.7695 170.557L59.9857 170.162L53.6926 173.575L53.6273 173.542L56.2758 168.291L55.4658 167.882L52.0927 174.571L52.8765 174.966L59.1892 171.546L59.2545 171.579L56.5995 176.844L57.3963 177.246ZM53.2611 177.257C53.4324 176.918 53.7668 176.71 54.224 176.94C54.6812 177.171 54.6995 177.557 54.5282 177.897L55.2467 178.259C55.6025 177.553 55.3303 176.794 54.5073 176.378C53.6713 175.957 52.8984 176.19 52.5426 176.895L53.2611 177.257Z" fill="#262626"/>
<path d="M48.9753 164.014L47.1274 165.3L44.6653 163.536L45.2882 161.373L44.515 160.819L42.389 168.51L43.1502 169.056L49.7484 164.568L48.9753 164.014ZM46.4269 165.788L43.4835 167.837L43.4359 167.803L44.4287 164.357L46.4269 165.788Z" fill="#262626"/>
<path d="M39.2887 156.434L38.4748 155.72L38.06 160.941L33.6125 161.419L34.4265 162.133L38.823 161.669L39.12 161.929L36.9784 164.371L37.6604 164.969L42.5996 159.338L41.9176 158.739L39.6506 161.324L38.9576 160.717L39.2887 156.434Z" fill="#262626"/>
<path d="M33.4322 150.583L32.695 149.79L31.752 154.942L27.2789 154.966L28.0162 155.759L32.4371 155.743L32.7061 156.033L30.3275 158.244L30.9452 158.909L36.431 153.808L35.8133 153.144L33.2954 155.485L32.6678 154.81L33.4322 150.583Z" fill="#262626"/>
<path d="M30.7159 147.502L28.5716 148.188L26.7369 145.779L27.9682 143.894L27.3921 143.137L23.0987 149.864L23.6659 150.609L31.292 148.259L30.7159 147.502ZM27.7585 148.449L24.3429 149.542L24.3074 149.495L26.2695 146.493L27.7585 148.449Z" fill="#262626"/>
<path d="M25.8831 140.787L25.6299 140.376C25.0315 139.405 24.3318 139.44 23.5727 139.547L16.8704 140.633L17.3767 141.455L22.328 140.623L19.4481 144.819L19.9621 145.653L23.4877 140.441L23.7858 140.395C24.1816 140.34 24.6311 140.373 24.915 140.834L25.1605 141.232L25.8831 140.787Z" fill="#262626"/>
<path d="M21.7133 134.083L21.3229 133.264L18.2986 134.706L16.5799 131.1L19.6042 129.659L19.2139 128.84L12.452 132.063L12.8424 132.882L15.8535 131.447L17.5722 135.052L14.5611 136.487L14.9514 137.306L21.7133 134.083Z" fill="#262626"/>
<path d="M11.7564 128.514L10.9705 126.294L17.2735 124.063L16.9708 123.208L10.6678 125.439L9.88187 123.218L9.1233 123.487L10.9978 128.783L11.7564 128.514Z" fill="#262626"/>
<path d="M9.00498 105.595L10.7409 115.748L11.5341 115.612L9.79815 105.46L9.00498 105.595Z" fill="#262626"/>
<path d="M14.0896 94.2638C14.1069 93.5179 13.9095 92.5621 13.7299 92.1042L13.0523 92.2934C13.134 92.5587 13.4069 93.4139 13.3882 94.2183C13.3303 96.7195 11.8953 98.018 9.40876 97.9604C6.96611 97.9038 5.53495 96.5096 5.58814 94.2133C5.64201 91.8876 7.30561 90.8286 8.9438 90.8665C10.6112 90.9051 11.3531 91.0979 11.3359 91.8439C11.3257 92.2827 10.9546 92.5083 10.5451 92.4988L7.23943 92.4222L7.22147 93.1974L7.63102 93.2069L7.63 93.2508C7.30584 93.3457 7.01472 93.9097 7.07092 94.6427C7.16252 95.7424 8.05006 96.5972 9.36646 96.6277C10.756 96.6599 11.839 96.0264 11.9123 94.7549C11.9609 93.9218 11.5615 93.4736 11.1414 93.2882L11.1424 93.2443C11.7734 93.1711 12.0111 92.3864 12.023 91.8744C12.0589 90.324 10.3948 90.1391 8.97604 90.1063C6.97219 90.0599 4.96506 91.4183 4.90171 94.1535C4.83632 96.9764 6.50868 98.6981 9.36088 98.7642C12.3155 98.8326 14.0205 97.2477 14.0896 94.2638ZM11.1691 94.6206C11.1471 95.5713 10.2763 95.8877 9.3402 95.8661C8.49185 95.8464 7.7717 95.3468 7.79101 94.5131C7.81134 93.6355 8.17322 93.1756 9.40186 93.204C10.6159 93.2321 11.1918 93.6406 11.1691 94.6206Z" fill="#262626"/>
<path d="M9.65293 80.1463C7.30811 79.8006 5.64353 80.9602 5.36403 82.8563C5.08453 84.7524 6.34374 86.343 8.68855 86.6886C11.0334 87.0343 12.698 85.8747 12.9774 83.9786C13.2569 82.0825 11.9977 80.4919 9.65293 80.1463ZM9.52491 81.0147C11.45 81.2985 12.3364 82.5087 12.1379 83.8548C11.9395 85.2009 10.7416 86.1039 8.81657 85.8202C6.8915 85.5364 6.00511 84.3262 6.20353 82.9801C6.40195 81.634 7.59985 80.731 9.52491 81.0147Z" fill="#262626"/>
<path d="M13.9267 77.7246L15.0103 73.4713L14.2305 73.2726L13.3709 76.6469L6.89167 74.9963L6.66773 75.8753L13.9267 77.7246Z" fill="#262626"/>
<path d="M12.9017 63.4245C11.3627 63.1624 10.0912 64.0088 9.57768 65.4255C8.92462 67.2274 9.84029 69.0377 12.0686 69.8453C14.2969 70.6529 16.1598 69.8497 16.8129 68.0477C17.3263 66.631 16.8923 65.1665 15.5427 64.3817L15.2336 65.2345C16.1355 65.7948 16.354 66.8233 16.0151 67.7586C15.5514 69.0378 14.1972 69.683 12.3677 69.02C10.5383 68.3569 9.91186 66.9939 10.3755 65.7147C10.7145 64.7793 11.5413 64.1297 12.5926 64.2773L12.9017 63.4245Z" fill="#262626"/>
<path d="M19.1241 61.7969L17.5512 60.1862L18.8848 57.4671L21.1213 57.7248L21.54 56.871L13.6033 56.0419L13.191 56.8826L18.7053 62.6507L19.1241 61.7969ZM16.9544 59.5758L14.4483 57.0104L14.4741 56.9579L18.0367 57.3689L16.9544 59.5758Z" fill="#262626"/>
<path d="M22.6478 54.7639L24.0756 52.4644C25.0094 50.9604 24.6619 49.8836 23.7048 49.2894C22.698 48.6642 21.719 49.0207 21.3189 49.5818L21.2568 49.5432C21.4472 48.9037 21.3877 48.1951 20.5674 47.6857C19.6352 47.1069 18.4911 47.2576 17.6653 48.5876L16.2839 50.8125L22.6478 54.7639ZM22.4427 53.5688L20.2302 52.1951L21.2026 50.6289C21.7197 49.7961 22.6032 49.6214 23.2495 50.0227C23.8088 50.37 24.017 51.0331 23.3919 52.0399L22.4427 53.5688ZM19.559 51.7783L17.446 50.4663L18.3489 49.0121C18.8737 48.1669 19.5527 48.0718 20.1121 48.4191C20.7832 48.8358 20.8787 49.6529 20.4465 50.3489L19.559 51.7783Z" fill="#262626"/>
<path d="M27.745 40.7645C25.8699 39.3149 23.8507 39.5107 22.6785 41.0271C21.5063 42.5434 21.8253 44.5469 23.7005 45.9964C25.5757 47.446 27.5948 47.2502 28.767 45.7338C29.9392 44.2175 29.6202 42.214 27.745 40.7645ZM27.2082 41.459C28.7477 42.6491 28.9279 44.1383 28.0957 45.2148C27.2635 46.2913 25.7769 46.492 24.2374 45.3019C22.6979 44.1118 22.5177 42.6226 23.3498 41.5461C24.182 40.4696 25.6686 40.2689 27.2082 41.459Z" fill="#262626"/>
<path d="M27.6715 35.144L27.0611 35.815L32.6022 40.8558L33.2126 40.1848L27.6715 35.144Z" fill="#262626"/>
<path d="M35.4701 37.6712L36.1299 37.0487L34.4632 35.2822L34.4213 33.8734L38.7051 34.619L39.5033 33.8659L34.394 33.0343L34.3626 28.4174L33.5006 29.2307L33.6033 34.2429L33.5394 34.3032L30.9892 31.6002L30.3294 32.2227L35.4701 37.6712Z" fill="#262626"/>
<path d="M43.9191 25.4831C42.4763 23.6026 40.4741 23.2763 38.9535 24.443C37.4329 25.6096 37.2296 27.6281 38.6724 29.5085C40.1151 31.389 42.1173 31.7153 43.6379 30.5487C45.1586 29.382 45.3618 27.3636 43.9191 25.4831ZM43.2226 26.0174C44.4071 27.5613 44.2009 29.0472 43.1214 29.8754C42.0419 30.7037 40.5533 30.518 39.3688 28.9742C38.1843 27.4304 38.3905 25.9445 39.47 25.1162C40.5495 24.288 42.0381 24.4736 43.2226 26.0174Z" fill="#262626"/>
<path d="M54.9565 17.0963C53.9846 15.8746 52.4726 15.6572 51.1451 16.3704C49.4568 17.2775 48.9318 19.2371 50.0535 21.3249C51.1753 23.4128 53.099 24.0567 54.7874 23.1496C56.1149 22.4364 56.7682 21.0557 56.286 19.5709L55.4869 20.0002C55.7852 21.0191 55.2622 21.9313 54.3858 22.4021C53.1872 23.0461 51.7478 22.6236 50.8268 20.9095C49.9059 19.1953 50.3482 17.7619 51.5468 17.1179C52.4232 16.6471 53.4725 16.7144 54.1574 17.5256L54.9565 17.0963Z" fill="#262626"/>
<path d="M59.6511 20.4252L59.9091 20.3217C61.4435 19.7063 61.2514 18.3331 60.4594 16.1128L59.4569 13.2991L62.0505 12.2589L64.5395 18.4645L65.3814 18.1268L62.5928 11.1743L58.3562 12.8736L59.5793 16.2767C60.327 18.3571 60.4134 19.2209 59.5443 19.5695L59.3406 19.6512L59.6511 20.4252Z" fill="#262626"/>
<path d="M68.8703 16.858L73.2716 15.5934L73.0494 14.82L69.5199 15.8341L68.8169 13.3874L72.0651 12.4541L71.8429 11.6807L68.5947 12.614L67.8957 10.1814L71.3689 9.18338L71.1467 8.40999L66.8016 9.65847L68.8703 16.858Z" fill="#262626"/>
<path d="M75.3977 16.8033L76.2469 16.6481L75.9206 14.8635L81.1161 13.9136L81.4398 15.6838L82.2889 15.5286L81.8205 12.9668L80.9714 13.122L79.7689 6.54488L75.3938 7.34476L75.8038 10.4824C76.0898 12.6164 75.8094 13.6047 75.4017 14.1403L74.9267 14.2271L75.3977 16.8033ZM76.4667 13.9456C76.7839 13.1588 76.8613 11.9548 76.6529 10.3271L76.3444 7.98898L79.0645 7.49168L80.1223 13.2773L76.4667 13.9456Z" fill="#262626"/>
<path d="M84.8501 13.4426L85.3315 13.4054C86.4693 13.3175 86.7574 12.6789 87.0096 11.955L89.1078 5.49758L88.1451 5.572L86.6219 10.3561L84.2066 5.87645L83.2292 5.95199L86.2531 11.4705L86.1579 11.7567C86.0256 12.1338 85.7912 12.5188 85.2515 12.5605L84.7847 12.5966L84.8501 13.4426Z" fill="#262626"/>
<path d="M94.4238 5.24844L93.5177 5.20645L93.1709 12.6893L94.0771 12.7313L94.2288 9.45754L95.6208 9.52205C95.6955 11.6236 96.9624 12.9675 98.7491 13.0503C100.664 13.139 102.12 11.7273 102.23 9.35965C102.34 6.99203 101.02 5.45159 99.1053 5.36287C97.2821 5.27838 95.8756 6.55333 95.6508 8.71789L94.266 8.65372L94.4238 5.24844ZM101.353 9.31901C101.263 11.2628 100.148 12.2656 98.7884 12.2026C97.4292 12.1397 96.4111 11.0379 96.5011 9.09416C96.5912 7.15038 97.7069 6.14754 99.0661 6.21053C100.425 6.27352 101.443 7.37523 101.353 9.31901Z" fill="#262626"/>
<path d="M113.216 14.0728L112.497 13.9385L113.725 7.366L112.833 7.19945L111.611 13.7432L109.022 13.2597L110.244 6.71593L109.353 6.54939L108.131 13.0931L105.542 12.6096L106.764 6.06587L105.872 5.89933L104.497 13.2628L112.091 14.6812L111.766 16.4214L112.643 16.5852L113.216 14.0728Z" fill="#262626"/>
<path d="M118.085 8.37217L115.799 15.5059L116.635 15.7737L122.317 11.418L122.387 11.4403L120.592 17.0414L121.456 17.3182L123.742 10.1845L122.906 9.91664L117.205 14.2818L117.136 14.2595L118.935 8.64446L118.085 8.37217Z" fill="#262626"/>
<path d="M127.756 11.5978L124.684 18.4299L125.485 18.7899L131.619 15.0995L131.686 15.1295L129.274 20.4937L130.102 20.8657L133.173 14.0336L132.373 13.6737L126.219 17.3714L126.152 17.3414L128.57 11.9638L127.756 11.5978ZM131.886 11.4017C131.73 11.7486 131.405 11.9715 130.938 11.7616C130.471 11.5516 130.436 11.1667 130.592 10.8197L129.858 10.4898C129.534 11.2103 129.84 11.9574 130.68 12.3354C131.534 12.7193 132.296 12.4522 132.62 11.7317L131.886 11.4017Z" fill="#262626"/>
<path d="M136.777 24.4059L138.567 23.0402L141.104 24.694L140.577 26.8826L141.373 27.4019L143.159 19.6245L142.375 19.1132L135.98 23.8866L136.777 24.4059ZM139.245 22.5219L142.096 20.3457L142.145 20.3777L141.304 23.8641L139.245 22.5219Z" fill="#262626"/>
<path d="M146.713 31.4592L147.557 32.1369L147.744 26.9024L152.166 26.2307L151.322 25.5531L146.95 26.2089L146.642 25.9616L148.675 23.4285L147.967 22.8608L143.278 28.7028L143.986 29.2706L146.138 26.5892L146.857 27.1661L146.713 31.4592Z" fill="#262626"/>
<path d="M153.079 37.2474L153.85 38.0073L154.568 32.8189L159.035 32.6003L158.264 31.8403L153.848 32.0482L153.567 31.771L155.847 29.4577L155.201 28.8209L149.942 34.1561L150.588 34.7928L153.002 32.3441L153.658 32.9911L153.079 37.2474Z" fill="#262626"/>
<path d="M155.852 40.1029L157.964 39.3241L159.902 41.6512L158.754 43.5878L159.363 44.3186L163.358 37.4109L162.759 36.6914L155.243 39.3722L155.852 40.1029ZM158.765 39.0283L162.13 37.7871L162.167 37.8321L160.338 40.9169L158.765 39.0283Z" fill="#262626"/>
<path d="M160.944 46.5219L161.215 46.9214C161.856 47.8659 162.553 47.7995 163.307 47.6595L169.955 46.2795L169.413 45.4804L164.503 46.53L167.196 42.2112L166.646 41.3999L163.353 46.7624L163.057 46.8215C162.664 46.8937 162.213 46.881 161.91 46.433L161.647 46.0455L160.944 46.5219Z" fill="#262626"/>
<path d="M165.506 53.166L165.933 53.9667L168.89 52.3919L170.767 55.9174L167.81 57.4921L168.236 58.2928L174.848 54.7719L174.422 53.9713L171.478 55.5391L169.6 52.0137L172.545 50.4458L172.118 49.6452L165.506 53.166Z" fill="#262626"/>
<path d="M175.677 58.2017L176.562 60.3847L170.365 62.8969L170.706 63.7376L176.902 61.2253L177.787 63.4082L178.533 63.1059L176.422 57.8994L175.677 58.2017Z" fill="#262626"/>
<path d="M179.544 81.3156L177.382 71.2449L176.596 71.4137L178.757 81.4844L179.544 81.3156Z" fill="#262626"/>
</svg>
