<svg width="100" height="101" viewBox="0 0 100 101" fill="none" xmlns="http://www.w3.org/2000/svg">
<mask id="path-1-inside-1" fill="white">
<path d="M100 50.3403C100 43.7742 98.7067 37.2724 96.194 31.2062C93.6812 25.1399 89.9983 19.6279 85.3553 14.985C80.7124 10.3421 75.2004 6.65909 69.1342 4.14635C63.0679 1.63362 56.5661 0.340332 50 0.340332C43.4339 0.340332 36.9321 1.63362 30.8658 4.14636C24.7995 6.65909 19.2876 10.3421 14.6447 14.985C10.0017 19.6279 6.31876 25.1399 3.80602 31.2062C1.29329 37.2724 -5.74026e-07 43.7742 0 50.3403H1.39269C1.39269 43.9571 2.64996 37.6364 5.0927 31.7391C7.53545 25.8418 11.1158 20.4834 15.6294 15.9698C20.143 11.4562 25.5015 7.87578 31.3988 5.43304C37.2961 2.99029 43.6168 1.73302 50 1.73302C56.3832 1.73302 62.7039 2.99029 68.6012 5.43303C74.4985 7.87578 79.8569 11.4562 84.3706 15.9698C88.8842 20.4834 92.4645 25.8418 94.9073 31.7391C97.35 37.6364 98.6073 43.9571 98.6073 50.3403H100Z"/>
</mask>
<path d="M100 50.3403C100 43.7742 98.7067 37.2724 96.194 31.2062C93.6812 25.1399 89.9983 19.6279 85.3553 14.985C80.7124 10.3421 75.2004 6.65909 69.1342 4.14635C63.0679 1.63362 56.5661 0.340332 50 0.340332C43.4339 0.340332 36.9321 1.63362 30.8658 4.14636C24.7995 6.65909 19.2876 10.3421 14.6447 14.985C10.0017 19.6279 6.31876 25.1399 3.80602 31.2062C1.29329 37.2724 -5.74026e-07 43.7742 0 50.3403H1.39269C1.39269 43.9571 2.64996 37.6364 5.0927 31.7391C7.53545 25.8418 11.1158 20.4834 15.6294 15.9698C20.143 11.4562 25.5015 7.87578 31.3988 5.43304C37.2961 2.99029 43.6168 1.73302 50 1.73302C56.3832 1.73302 62.7039 2.99029 68.6012 5.43303C74.4985 7.87578 79.8569 11.4562 84.3706 15.9698C88.8842 20.4834 92.4645 25.8418 94.9073 31.7391C97.35 37.6364 98.6073 43.9571 98.6073 50.3403H100Z" stroke="#262626" stroke-width="2" mask="url(#path-1-inside-1)"/>
<mask id="path-2-inside-2" fill="white">
<path d="M2.38694 65.6047C5.63802 75.7456 12.042 84.5837 20.6661 90.8315C29.2901 97.0792 39.6837 100.41 50.3329 100.339C60.982 100.268 71.3303 96.7993 79.8704 90.4373C88.4105 84.0753 94.6963 75.1528 97.8121 64.9694L96.4803 64.5619C93.4513 74.4616 87.3407 83.1357 79.0384 89.3205C70.7362 95.5053 60.6761 98.8778 50.3236 98.9467C39.9711 99.0156 29.867 95.7774 21.4831 89.7036C13.0993 83.6299 6.87367 75.038 3.71315 65.1795L2.38694 65.6047Z"/>
</mask>
<path d="M2.38694 65.6047C5.63802 75.7456 12.042 84.5837 20.6661 90.8315C29.2901 97.0792 39.6837 100.41 50.3329 100.339C60.982 100.268 71.3303 96.7993 79.8704 90.4373C88.4105 84.0753 94.6963 75.1528 97.8121 64.9694L96.4803 64.5619C93.4513 74.4616 87.3407 83.1357 79.0384 89.3205C70.7362 95.5053 60.6761 98.8778 50.3236 98.9467C39.9711 99.0156 29.867 95.7774 21.4831 89.7036C13.0993 83.6299 6.87367 75.038 3.71315 65.1795L2.38694 65.6047Z" stroke="#262626" stroke-width="2" mask="url(#path-2-inside-2)"/>
</svg>
